<svg xmlns="http://www.w3.org/2000/svg" viewBox="0 0 760 240">
  <defs>
    <linearGradient id="bfLetter" x1="0%" y1="0%" x2="100%" y2="100%">
      <stop offset="0%" stop-color="#ff8fbd" />
      <stop offset="45%" stop-color="#f6badf" />
      <stop offset="100%" stop-color="#9e73d7" />
    </linearGradient>
    <linearGradient id="bfScript" x1="0%" y1="0%" x2="100%" y2="0%">
      <stop offset="0%" stop-color="#f49cc4" />
      <stop offset="100%" stop-color="#c587de" />
    </linearGradient>
    <linearGradient id="bfGold" x1="0%" y1="0%" x2="100%" y2="100%">
      <stop offset="0%" stop-color="#f7d288" />
      <stop offset="100%" stop-color="#d58d38" />
    </linearGradient>
    <filter id="bfGlow" x="-20%" y="-20%" width="140%" height="140%">
      <feGaussianBlur stdDeviation="3" result="blur"/>
      <feMerge>
        <feMergeNode in="blur"/>
        <feMergeNode in="SourceGraphic"/>
      </feMerge>
    </filter>
  </defs>
  <g filter="url(#bfGlow)">
    <text x="24" y="132" font-size="126" font-weight="700" font-family="Georgia, Times New Roman, serif" fill="url(#bfLetter)">BF</text>
    <path d="M247 111c16-37 64-48 96-28 22 14 24 46 3 61-18 12-46 9-61-8-16-17-16-43 1-57 16-15 44-19 61-8"
      fill="none" stroke="#f39ec4" stroke-width="7" stroke-linecap="round"/>
    <path d="M338 74c12-21 41-25 58-7 18 18 11 48-11 58-20 9-47-1-56-22-9-21 1-46 22-55"
      fill="none" stroke="#bf8be3" stroke-width="7" stroke-linecap="round"/>
    <circle cx="428" cy="102" r="36" fill="none" stroke="url(#bfGold)" stroke-width="8"/>
    <path d="M452 126l38 34" stroke="url(#bfGold)" stroke-width="12" stroke-linecap="round"/>
    <path d="M413 92c8-13 27-15 37-3 11 13 5 30-9 37-13 6-31 0-37-14-6-14 0-28 9-34z"
      fill="#f5aacd"/>
    <path d="M178 86c9-15 32-18 44-4 13 15 6 35-11 43-16 7-37-1-43-18-5-8-2-16 1-21 2 0 4 0 5 0 2-10 4-10 4 0z"
      fill="#f2a5cc"/>
    <path d="M152 140c10-22 42-25 55-5 12 20 1 44-23 49-23 6-42-8-42-29 0-5 1-10 3-15 2 0 4 0 7 0z"
      fill="#f8c0d8" stroke="#d48a58" stroke-width="3"/>
    <g fill="#ffd795">
      <path d="M118 116l7 13 14 2-10 9 3 14-12-7-12 7 2-14-10-9 14-2z"/>
      <path d="M474 56l8 15 15 2-11 10 3 15-13-8-13 8 3-15-11-10 15-2z"/>
      <path d="M514 132l8 14 15 2-11 10 3 15-13-8-13 8 3-15-11-10 15-2z"/>
    </g>
    <text x="20" y="214" font-size="84" font-weight="600" font-family="Brush Script MT, Segoe Script, cursive" fill="url(#bfScript)">Beauty Finder</text>
  </g>
</svg>
